<svg width="18" height="18" viewBox="0 0 18 18" fill="none" xmlns="http://www.w3.org/2000/svg">
<path opacity="0.3" d="M12.75 2.03749C12.947 1.84051 13.1808 1.68425 13.4382 1.57764C13.6956 1.47104 13.9714 1.41617 14.25 1.41617C14.5286 1.41617 14.8044 1.47104 15.0618 1.57764C15.3192 1.68425 15.553 1.84051 15.75 2.03749C15.947 2.23447 16.1032 2.46832 16.2098 2.72569C16.3165 2.98306 16.3713 3.25891 16.3713 3.53749C16.3713 3.81606 16.3165 4.09191 16.2098 4.34928C16.1032 4.60665 15.947 4.84051 15.75 5.03749L5.625 15.1625L1.5 16.2875L2.625 12.1625L12.75 2.03749Z" stroke="#696477" stroke-width="2" stroke-linecap="round" stroke-linejoin="round"/>
</svg>
