<svg width="21" height="21" viewBox="0 0 21 21" fill="none" xmlns="http://www.w3.org/2000/svg">
<path d="M5.70829 8.58333C5.51875 8.58333 5.33347 8.63954 5.17587 8.74484C5.01827 8.85014 4.89544 8.99981 4.82291 9.17493C4.75037 9.35004 4.7314 9.54273 4.76837 9.72863C4.80535 9.91452 4.89662 10.0853 5.03065 10.2193C5.16467 10.3533 5.33543 10.4446 5.52133 10.4816C5.70723 10.5186 5.89992 10.4996 6.07503 10.427C6.25014 10.3545 6.39981 10.2317 6.50512 10.0741C6.61042 9.91649 6.66663 9.7312 6.66663 9.54166C6.66663 9.2875 6.56566 9.04374 6.38594 8.86402C6.20621 8.6843 5.96246 8.58333 5.70829 8.58333ZM17.2083 4.75H16.25V1.875C16.25 1.62083 16.149 1.37708 15.9693 1.19735C15.7895 1.01763 15.5458 0.916664 15.2916 0.916664H5.70829C5.45413 0.916664 5.21037 1.01763 5.03065 1.19735C4.85093 1.37708 4.74996 1.62083 4.74996 1.875V4.75H3.79163C3.02913 4.75 2.29786 5.0529 1.75869 5.59207C1.21953 6.13123 0.916626 6.8625 0.916626 7.625V13.375C0.916626 14.1375 1.21953 14.8688 1.75869 15.4079C2.29786 15.9471 3.02913 16.25 3.79163 16.25H4.74996V19.125C4.74996 19.3792 4.85093 19.6229 5.03065 19.8026C5.21037 19.9824 5.45413 20.0833 5.70829 20.0833H15.2916C15.5458 20.0833 15.7895 19.9824 15.9693 19.8026C16.149 19.6229 16.25 19.3792 16.25 19.125V16.25H17.2083C17.9708 16.25 18.7021 15.9471 19.2412 15.4079C19.7804 14.8688 20.0833 14.1375 20.0833 13.375V7.625C20.0833 6.8625 19.7804 6.13123 19.2412 5.59207C18.7021 5.0529 17.9708 4.75 17.2083 4.75ZM6.66663 2.83333H14.3333V4.75H6.66663V2.83333ZM14.3333 18.1667H6.66663V14.3333H14.3333V18.1667ZM18.1666 13.375C18.1666 13.6292 18.0657 13.8729 17.8859 14.0526C17.7062 14.2324 17.4625 14.3333 17.2083 14.3333H16.25V13.375C16.25 13.1208 16.149 12.8771 15.9693 12.6974C15.7895 12.5176 15.5458 12.4167 15.2916 12.4167H5.70829C5.45413 12.4167 5.21037 12.5176 5.03065 12.6974C4.85093 12.8771 4.74996 13.1208 4.74996 13.375V14.3333H3.79163C3.53746 14.3333 3.2937 14.2324 3.11398 14.0526C2.93426 13.8729 2.83329 13.6292 2.83329 13.375V7.625C2.83329 7.37083 2.93426 7.12708 3.11398 6.94735C3.2937 6.76763 3.53746 6.66666 3.79163 6.66666H17.2083C17.4625 6.66666 17.7062 6.76763 17.8859 6.94735C18.0657 7.12708 18.1666 7.37083 18.1666 7.625V13.375Z" fill="#332443"/>
</svg>
