<svg width="21" height="26" viewBox="0 0 21 26" fill="none" xmlns="http://www.w3.org/2000/svg">
<g opacity="0.6">
<path d="M10.3833 0C4.64878 0 0 4.6045 0 10.2844V23.4578C0 24.8618 1.14914 26 2.56667 26H4.55C3.13247 26 1.98333 24.8618 1.98333 23.4578V10.3422C1.98333 5.7153 5.77026 1.96444 10.4417 1.96444C15.1131 1.96444 18.9 5.7153 18.9 10.3422V23.2267C18.9 24.7583 17.6464 26 16.1 26H18.2C19.7464 26 21 24.7583 21 23.2267V10.2844C21 4.6045 16.3512 0 10.6167 0H10.3833Z" fill="#696477"/>
<path d="M10.3833 0C4.64878 0 0 4.6045 0 10.2844V23.4578C0 24.8618 1.14914 26 2.56667 26H4.55C3.13247 26 1.98333 24.8618 1.98333 23.4578V10.3422C1.98333 5.7153 5.77026 1.96444 10.4417 1.96444C15.1131 1.96444 18.9 5.7153 18.9 10.3422V23.2267C18.9 24.7583 17.6464 26 16.1 26H18.2C19.7464 26 21 24.7583 21 23.2267V10.2844C21 4.6045 16.3512 0 10.6167 0H10.3833Z" fill="#696477"/>
<path d="M17.7567 13.7236V14.8373C17.7567 18.8963 14.4346 22.1867 10.3367 22.1867C6.23871 22.1867 2.91666 18.8963 2.91666 14.8373V10.2659C3.52999 10.5313 4.19831 10.6953 4.9 10.7364V14.6178C4.9 17.6492 7.38109 20.1067 10.4417 20.1067C13.5022 20.1067 15.9833 17.6492 15.9833 14.6178V14.1804C16.607 14.1161 17.2029 13.9591 17.7567 13.7236Z" fill="#696477"/>
<path d="M11.055 3.81333H10.9666C10.9716 3.83761 10.9764 3.86194 10.9811 3.88633C11.0055 3.86179 11.0302 3.83746 11.055 3.81333Z" fill="#696477"/>
<path d="M8.34167 7.56889C9.21667 6.70222 11.025 7.28 11.025 8.20444C11.025 8.27917 11.0647 8.34578 11.1381 8.40661C11.3572 10.5465 13.1817 12.2165 15.4 12.2165C16.2479 12.2165 17.0382 11.9726 17.7034 11.5516C17.7144 11.5908 17.7244 11.6307 17.7333 11.6711C17.9081 12.4648 17.7333 13.7511 17.7333 13.7511L19.3596 12.8271C18.2777 13.6941 16.9001 14.2133 15.4 14.2133C12.3447 14.2133 9.79738 12.0591 9.2218 9.20054C8.1804 10.1599 6.78439 10.7467 5.25 10.7467C4.42367 10.7467 3.63747 10.5765 2.92518 10.2696C2.94866 9.9647 3.02923 9.19558 3.26666 8.72444C3.31539 8.62775 3.37098 8.5406 3.43269 8.46211C3.97714 8.74055 4.59503 8.89778 5.25 8.89778C6.34505 8.89778 7.33645 8.45828 8.05422 7.74766C8.16691 7.70423 8.26385 7.64597 8.34167 7.56889Z" fill="#696477"/>
</g>
</svg>
