<svg width="24" height="20" viewBox="0 0 24 20" fill="none" xmlns="http://www.w3.org/2000/svg">
<path d="M13.2 14.4168L21.6 14.3604V2.4L15.396 2.4084L13.2192 4.5852L13.2 14.4168ZM10.8 4.5852L8.6148 2.4552L2.4 2.4132V14.3604L10.8 14.4168V4.5852ZM9.6 0.0612028L12 2.4096L14.4 0.00960258L21.5964 2.7043e-06C21.9116 -0.000470409 22.2238 0.0611388 22.5151 0.181313C22.8065 0.301488 23.0713 0.477874 23.2945 0.7004C23.5177 0.922926 23.6949 1.18724 23.8159 1.47824C23.937 1.76924 23.9995 2.08123 24 2.3964V14.3604C24 14.994 23.7495 15.6019 23.303 16.0515C22.8565 16.5012 22.2504 16.756 21.6168 16.7604L14.4 16.8096L12.0048 19.2096L9.6 16.8096L2.3832 16.7604C1.7496 16.756 1.14345 16.5012 0.696994 16.0515C0.250533 15.6019 -1.55231e-05 14.994 7.21344e-10 14.3604V2.4132C7.21344e-10 1.77668 0.252856 1.16623 0.702944 0.716146C1.15303 0.266059 1.76348 0.0132023 2.4 0.0132023L9.6 0.0612028Z" fill="url(#paint0_linear)"/>
<defs>
<linearGradient id="paint0_linear" x1="0" y1="0" x2="19.5025" y2="1.53226" gradientUnits="userSpaceOnUse">
<stop stop-color="#FB8530"/>
<stop offset="1" stop-color="#FF4A6B"/>
</linearGradient>
</defs>
</svg>
