<svg width="16" height="17" viewBox="0 0 16 17" fill="none" xmlns="http://www.w3.org/2000/svg">
<path fill-rule="evenodd" clip-rule="evenodd" d="M5 10.7875H15C15.2652 10.7875 15.5196 10.8928 15.7071 11.0804C15.8946 11.2679 16 11.5223 16 11.7875C16 12.0527 15.8946 12.307 15.7071 12.4946C15.5196 12.6821 15.2652 12.7875 15 12.7875H5C4.73478 12.7875 4.48043 12.6821 4.29289 12.4946C4.10536 12.307 4 12.0527 4 11.7875C4 11.5223 4.10536 11.2679 4.29289 11.0804C4.48043 10.8928 4.73478 10.7875 5 10.7875ZM5 14.7875H15C15.2652 14.7875 15.5196 14.8928 15.7071 15.0804C15.8946 15.2679 16 15.5223 16 15.7875C16 16.0527 15.8946 16.307 15.7071 16.4946C15.5196 16.6821 15.2652 16.7875 15 16.7875H5C4.73478 16.7875 4.48043 16.6821 4.29289 16.4946C4.10536 16.307 4 16.0527 4 15.7875C4 15.5223 4.10536 15.2679 4.29289 15.0804C4.48043 14.8928 4.73478 14.7875 5 14.7875ZM11 6.78748H15C15.2652 6.78748 15.5196 6.89283 15.7071 7.08037C15.8946 7.26791 16 7.52226 16 7.78748C16 8.05269 15.8946 8.30705 15.7071 8.49458C15.5196 8.68212 15.2652 8.78748 15 8.78748H11C10.7348 8.78748 10.4804 8.68212 10.2929 8.49458C10.1054 8.30705 10 8.05269 10 7.78748C10 7.52226 10.1054 7.26791 10.2929 7.08037C10.4804 6.89283 10.7348 6.78748 11 6.78748ZM3.743 8.70148L0 4.95948L1.414 3.54448L3.743 5.87348L8.828 0.787476L10.243 2.20148L3.743 8.70148Z" fill="white"/>
</svg>
