<svg width="24" height="24" viewBox="0 0 24 24" fill="none" xmlns="http://www.w3.org/2000/svg">
<path fill-rule="evenodd" clip-rule="evenodd" d="M12 24C5.3724 24 0 18.6276 0 12C0 5.3724 5.3724 0 12 0C18.6276 0 24 5.3724 24 12C24 18.6276 18.6276 24 12 24ZM12 21.6C14.5461 21.6 16.9879 20.5886 18.7882 18.7882C20.5886 16.9879 21.6 14.5461 21.6 12C21.6 9.45392 20.5886 7.01212 18.7882 5.21178C16.9879 3.41143 14.5461 2.4 12 2.4C9.45392 2.4 7.01212 3.41143 5.21178 5.21178C3.41143 7.01212 2.4 9.45392 2.4 12C2.4 14.5461 3.41143 16.9879 5.21178 18.7882C7.01212 20.5886 9.45392 21.6 12 21.6ZM10.8 16.8H13.2V19.2H10.8V16.8ZM10.8 14.4096C10.8 14.4096 13.2 14.4 13.2 14.4096C13.2 13.2072 16.8 12 16.8 9.6C16.8 6.948 14.6724 4.8 12.0108 4.8C11.3795 4.79858 10.7542 4.92169 10.1706 5.16227C9.58699 5.40286 9.05657 5.7562 8.6097 6.20206C8.16284 6.64793 7.80831 7.17755 7.56641 7.76062C7.32451 8.34369 7.2 8.96875 7.2 9.6H9.6C9.6 8.28 10.68 7.2 12 7.2C13.32 7.2 14.4 8.28 14.4 9.6C14.4 10.68 10.8 12.4404 10.8 14.4096Z" fill="url(#paint0_linear)"/>
<defs>
<linearGradient id="paint0_linear" x1="0" y1="0" x2="19.5456" y2="1.22913" gradientUnits="userSpaceOnUse">
<stop stop-color="#FB8530"/>
<stop offset="1" stop-color="#FF4A6B"/>
</linearGradient>
</defs>
</svg>
