<svg width="15" height="19" viewBox="0 0 15 19" fill="none" xmlns="http://www.w3.org/2000/svg">
<path d="M13.9973 11.3262C13.7911 8.64173 12.5412 6.95947 11.4386 5.47496C10.4176 4.10063 9.53577 2.91383 9.53577 1.16312C9.53577 1.02249 9.45702 0.893962 9.33214 0.82952C9.20688 0.764692 9.05638 0.775309 8.94251 0.858067C7.28651 2.04304 5.90479 4.04024 5.42213 5.94584C5.08706 7.27254 5.04273 8.764 5.03651 9.74905C3.50721 9.42241 3.16078 7.13486 3.15712 7.10994C3.1399 6.99129 3.0674 6.88803 2.96193 6.83164C2.85538 6.77599 2.73011 6.77195 2.62208 6.82542C2.54189 6.86423 0.653681 7.82365 0.543817 11.6543C0.536118 11.7817 0.535767 11.9096 0.535767 12.0374C0.535767 15.7589 3.56395 18.7869 7.28577 18.7869C7.2909 18.7873 7.29638 18.788 7.30078 18.7869C7.30226 18.7869 7.3037 18.7869 7.30553 18.7869C11.0182 18.7763 14.0358 15.7523 14.0358 12.0374C14.0358 11.8502 13.9973 11.3262 13.9973 11.3262ZM7.28577 18.037C6.04503 18.037 5.03577 16.9618 5.03577 15.6403C5.03577 15.5953 5.03542 15.5498 5.03868 15.4942C5.0537 14.9368 5.15955 14.5564 5.27564 14.3033C5.49319 14.7706 5.88208 15.2001 6.51381 15.2001C6.72109 15.2001 6.88882 15.0324 6.88882 14.8252C6.88882 14.2913 6.89982 13.6753 7.03275 13.1194C7.15105 12.6266 7.43374 12.1022 7.79191 11.6818C7.9512 12.2274 8.26178 12.669 8.565 13.1C8.99897 13.7167 9.44756 14.3542 9.52631 15.4414C9.53106 15.5059 9.53584 15.5707 9.53584 15.6403C9.53577 16.9618 8.5265 18.037 7.28577 18.037Z" fill="url(#paint0_linear)"/>
<defs>
<linearGradient id="paint0_linear" x1="0.535767" y1="0.787476" x2="11.5491" y2="1.30691" gradientUnits="userSpaceOnUse">
<stop stop-color="#FB8530"/>
<stop offset="1" stop-color="#FF4A6B"/>
</linearGradient>
</defs>
</svg>
