<svg width="16" height="24" viewBox="0 0 16 24" fill="none" xmlns="http://www.w3.org/2000/svg">
<path fill-rule="evenodd" clip-rule="evenodd" d="M4.66667 13.1667V22.5C4.66667 22.8094 4.54375 23.1062 4.32496 23.325C4.10616 23.5437 3.80942 23.6667 3.5 23.6667C3.19058 23.6667 2.89383 23.5437 2.67504 23.325C2.45625 23.1062 2.33333 22.8094 2.33333 22.5V13.1667C1.71449 13.1667 1.121 12.9208 0.683417 12.4832C0.245833 12.0457 0 11.4522 0 10.8333V2.66666C0 2.04782 0.245833 1.45433 0.683417 1.01675C1.121 0.579161 1.71449 0.333328 2.33333 0.333328V7.33333H4.66667V0.333328C5.2855 0.333328 5.879 0.579161 6.31658 1.01675C6.75417 1.45433 7 2.04782 7 2.66666V10.8333C7 11.4522 6.75417 12.0457 6.31658 12.4832C5.879 12.9208 5.2855 13.1667 4.66667 13.1667ZM15.1667 2.66666V22.5C15.1667 22.8094 15.0437 23.1062 14.825 23.325C14.6062 23.5437 14.3094 23.6667 14 23.6667C13.6906 23.6667 13.3938 23.5437 13.175 23.325C12.9562 23.1062 12.8333 22.8094 12.8333 22.5V15.5H11.6667C11.0478 15.5 10.4543 15.2542 10.0168 14.8166C9.57917 14.379 9.33333 13.7855 9.33333 13.1667V2.66666C9.33333 2.04782 9.57917 1.45433 10.0168 1.01675C10.4543 0.579161 11.0478 0.333328 11.6667 0.333328H12.8333C13.4522 0.333328 14.0457 0.579161 14.4832 1.01675C14.9208 1.45433 15.1667 2.04782 15.1667 2.66666Z" fill="url(#paint0_linear)"/>
<defs>
<linearGradient id="paint0_linear" x1="0" y1="0.333328" x2="12.3799" y2="0.839363" gradientUnits="userSpaceOnUse">
<stop stop-color="#FB8530"/>
<stop offset="1" stop-color="#FF4A6B"/>
</linearGradient>
</defs>
</svg>
