<svg width="28" height="28" viewBox="0 0 28 28" fill="none" xmlns="http://www.w3.org/2000/svg">
<path d="M16.3063 8.56471C13.4241 7.15914 10.0442 7.99045 8.09166 10.3586L11.1106 13.3776C11.4552 13.7221 11.4552 14.2745 11.1106 14.6136C10.9411 14.7831 10.7169 14.8707 10.4926 14.8707C10.2684 14.8707 10.0442 14.7831 9.87461 14.6136L7.12909 11.8681L0.12309 26.2356C-0.0355154 26.5637 -0.0464537 26.963 0.12309 27.313C0.418425 27.9201 1.15676 28.1717 1.76384 27.8763L9.07064 24.3104L6.37981 21.6196C6.03526 21.2805 6.03526 20.7227 6.37981 20.3836C6.72437 20.0445 7.27676 20.0445 7.61584 20.3836L10.7333 23.501L16.3118 20.7774C17.6244 20.1375 18.7456 19.0655 19.4347 17.6545C21.0809 14.28 19.6808 10.2109 16.3063 8.56471ZM21.3434 6.65597C22.4099 4.43002 21.8575 1.79935 19.6863 0C16.9353 2.28064 16.815 5.87935 19.2542 8.30766L19.6918 8.74519C22.1201 11.1844 25.7242 11.0641 27.9994 8.31313C26.2001 6.14187 23.5694 5.58949 21.3434 6.65597Z" fill="url(#paint0_linear)"/>
<defs>
<linearGradient id="paint0_linear" x1="0" y1="0" x2="22.8027" y2="1.43393" gradientUnits="userSpaceOnUse">
<stop stop-color="#FB8530"/>
<stop offset="1" stop-color="#FF4A6B"/>
</linearGradient>
</defs>
</svg>
