<svg width="39" height="40" viewBox="0 0 39 40" fill="none" xmlns="http://www.w3.org/2000/svg">
<path d="M34.792 0.787476H4.20849C1.88467 0.787476 0 2.67163 0 4.99597V35.5795C0 37.9028 1.88467 39.7875 4.20849 39.7875H34.792C37.1158 39.7875 39 37.9028 39 35.5795V4.99597C39 2.67111 37.1164 0.787476 34.792 0.787476ZM27.9574 5.1707L24.8284 9.81368C22.9697 8.56103 21.1685 8.15092 19.5995 8.15506L17.3519 4.34528L16.7982 4.64548L18.5709 8.2178C16.0889 8.50867 14.3971 9.72346 14.3686 9.74472L11.0441 5.24017C11.3749 4.99493 19.2646 -0.687597 27.9574 5.1707ZM34.2658 31.1164C34.2658 33.4403 32.3816 35.3249 30.0573 35.3249H8.87325C6.54891 35.3249 4.66476 33.4403 4.66476 31.1164V16.2542C4.66476 13.9299 6.54891 12.0457 8.87325 12.0457H30.0568C32.3811 12.0457 34.2652 13.9299 34.2652 16.2542L34.2658 31.1164Z" fill="#22CECE"/>
</svg>
