<svg width="40" height="41" viewBox="0 0 40 41" fill="none" xmlns="http://www.w3.org/2000/svg">
<g clip-path="url(#clip0)">
<path d="M39.3015 13.0749L35.9938 9.76725L38.4803 7.2817C38.7002 7.06209 38.8238 6.76451 38.8238 6.45326C38.8238 6.14201 38.7002 5.84443 38.4804 5.62474L35.1513 2.29567C34.7119 1.85622 33.9337 1.85622 33.4942 2.29567L31.0087 4.78216L27.7005 1.47387C26.7853 0.558636 25.3013 0.558636 24.386 1.47387C23.4706 2.38911 23.4706 3.8731 24.386 4.78841L35.9869 16.3894C36.9023 17.3047 38.3863 17.3047 39.3015 16.3894C40.2167 15.4742 40.2167 13.9902 39.3015 13.0749Z" fill="#22CECE"/>
<path d="M15.6141 36.7865L4.01325 25.1854C3.09786 24.2702 1.61403 24.2702 0.698634 25.1854C-0.216602 26.1008 -0.216602 27.5848 0.698634 28.5001L4.00684 31.8083L1.5252 34.2889C1.30543 34.5087 1.18184 34.8062 1.18184 35.1174C1.18184 35.4287 1.30543 35.7262 1.5252 35.9459L4.85427 39.2739C5.0831 39.5029 5.38294 39.6173 5.68279 39.6173C5.98263 39.6173 6.28247 39.5029 6.5113 39.274L8.99193 36.7934L12.2996 40.1011C13.2148 41.0163 14.6988 41.0163 15.6141 40.1011C16.5295 39.1857 16.5295 37.7017 15.6141 36.7865Z" fill="#22CECE"/>
<path d="M21.0713 14.7322L13.9568 21.871L18.9287 26.8428L26.0432 19.7039L21.0713 14.7322Z" fill="#22CECE"/>
<path d="M35.987 19.704L21.0714 4.78839C20.1562 3.87315 18.6721 3.87315 17.7569 4.78839C16.8415 5.70378 16.8415 7.18761 17.7569 8.103L32.6724 23.0186C33.5877 23.9338 35.0716 23.9338 35.987 23.0186C36.9023 22.1033 36.9023 20.6194 35.987 19.704Z" fill="#22CECE"/>
<path d="M22.2433 33.4719L7.32767 18.5563C6.41243 17.641 4.92844 17.641 4.0132 18.5563C3.09781 19.4716 3.09781 20.9556 4.0132 21.8709L18.9288 36.7864C19.844 37.7017 21.328 37.7017 22.2433 36.7864C23.1587 35.8712 23.1587 34.3872 22.2433 33.4719Z" fill="#22CECE"/>
</g>
<defs>
<clipPath id="clip0">
<rect width="40" height="40" fill="white" transform="translate(0 0.787476)"/>
</clipPath>
</defs>
</svg>
