<svg width="32" height="43" viewBox="0 0 32 43" fill="none" xmlns="http://www.w3.org/2000/svg">
<path d="M31.6603 25.3779C31.1791 19.1141 28.2628 15.1888 25.6899 11.7249C23.3076 8.51818 21.25 5.74897 21.25 1.66397C21.25 1.33585 21.0662 1.03594 20.7749 0.88558C20.4826 0.734314 20.1314 0.759088 19.8657 0.952189C16.0017 3.71713 12.7777 8.37725 11.6515 12.8237C10.8697 15.9193 10.7662 19.3994 10.7517 21.6978C7.18336 20.9357 6.37503 15.5981 6.3665 15.5399C6.3263 15.263 6.15715 15.0221 5.91106 14.8905C5.66242 14.7607 5.37014 14.7512 5.11806 14.876C4.93095 14.9666 0.525133 17.2052 0.268785 26.1434C0.25082 26.4408 0.25 26.739 0.25 27.0372C0.25 35.7208 7.31576 42.7862 16 42.7862C16.012 42.787 16.0248 42.7887 16.035 42.7862C16.0385 42.7862 16.0418 42.7862 16.0461 42.7862C24.709 42.7613 31.75 35.7055 31.75 27.0372C31.75 26.6006 31.6603 25.3779 31.6603 25.3779ZM16 41.0363C13.105 41.0363 10.75 38.5277 10.75 35.444C10.75 35.339 10.7492 35.233 10.7568 35.1031C10.7918 33.8027 11.0388 32.9149 11.3097 32.3245C11.8173 33.4147 12.7247 34.417 14.1988 34.417C14.6824 34.417 15.0738 34.0256 15.0738 33.5421C15.0738 32.2963 15.0995 30.8591 15.4096 29.5621C15.6857 28.412 16.3453 27.1884 17.181 26.2076C17.5527 27.4807 18.2774 28.5111 18.9849 29.5168C19.9975 30.9556 21.0442 32.4433 21.2279 34.9801C21.239 35.1304 21.2502 35.2817 21.2502 35.444C21.25 38.5276 18.895 41.0363 16 41.0363Z" fill="#22CECE"/>
</svg>
