<svg width="38" height="41" viewBox="0 0 38 41" fill="none" xmlns="http://www.w3.org/2000/svg">
<path d="M33.6 19.3031V19.4302L33.7253 19.4511C34.6265 19.6012 35.3898 20.0382 36.0192 20.7682C36.647 21.4964 36.9594 22.3341 36.9594 23.2875C36.9594 24.2901 36.61 25.1652 35.906 25.9195C35.198 26.678 34.3683 27.1293 33.4141 27.2799L33.2467 27.3064L33.2933 27.4693C33.5004 28.1941 33.6 28.7511 33.6 29.1469C33.6 29.5971 33.4994 30.2341 33.292 31.0636L33.2623 31.1823L33.3726 31.2352C34.0035 31.5381 34.4683 31.9313 34.7761 32.4114C35.0837 32.8913 35.2406 33.4676 35.2406 34.1469V35.7875C35.2406 37.1567 34.7858 38.3034 33.8769 39.2376C32.9701 40.1695 31.8123 40.6375 30.3906 40.6375H7.10938C5.68773 40.6375 4.52985 40.1695 3.62313 39.2376C2.71424 38.3034 2.25937 37.1567 2.25937 35.7875V34.1469C2.25937 33.4676 2.41633 32.8913 2.72394 32.4114C3.0317 31.9313 3.49648 31.5381 4.12741 31.2352L4.23769 31.1823L4.20802 31.0636C4.00064 30.2341 3.9 29.5971 3.9 29.1469C3.9 28.8537 3.99991 28.2449 4.20893 27.3044L4.24355 27.1486L4.08589 27.1237C3.13166 26.973 2.30199 26.5218 1.59403 25.7633C0.890046 25.009 0.540625 24.1338 0.540625 23.1312C0.540625 22.1779 0.853036 21.3402 1.4808 20.612C2.11017 19.8819 2.87354 19.445 3.77466 19.2948L3.9 19.2739V19.1469V15.3187V15.228L3.8196 15.1859C3.29522 14.9112 2.90761 14.5463 2.64998 14.0923C2.39192 13.6377 2.25937 13.085 2.25937 12.4281C2.25937 9.23837 3.37663 6.52923 5.61388 4.29198C7.85113 2.05473 10.5603 0.937476 13.75 0.937476H23.75C26.9397 0.937476 29.6489 2.05473 31.8861 4.29198C34.1234 6.52923 35.2406 9.23837 35.2406 12.4281C35.2406 13.085 35.1081 13.6377 34.85 14.0923C34.5924 14.5463 34.2048 14.9112 33.6804 15.1859L33.6 15.228V15.3187V19.3031ZM7.10938 15.6375H6.95937V15.7875V19.1469V19.2969H7.10938H17.1094H17.2594V19.1469V15.7875V15.6375H17.1094H7.10938ZM20.3906 15.6375H20.2406V15.7875V19.1469V19.2969H20.3906H30.3906H30.5406V19.1469V15.7875V15.6375H30.3906H20.3906ZM32.1094 12.5781H32.2594V12.4281C32.2594 10.0968 31.4364 8.10549 29.7936 6.46266C28.15 4.81912 26.1324 3.99685 23.75 3.99685H13.75C11.3676 3.99685 9.34997 4.81912 7.70643 6.46266C6.06361 8.10549 5.24062 10.0968 5.24062 12.4281V12.5781H5.39062H32.1094ZM5.39062 33.9968H5.24062V34.1469V35.7875C5.24062 36.3593 5.39074 36.8153 5.71674 37.1264C6.04144 37.4364 6.51503 37.5781 7.10938 37.5781H30.3906C30.985 37.5781 31.4586 37.4364 31.7833 37.1264C32.1093 36.8153 32.2594 36.3593 32.2594 35.7875V34.1469V33.9968H32.1094H5.39062ZM28.75 30.9375C29.32 30.9375 29.775 30.7949 30.0865 30.4834C30.398 30.1719 30.5406 29.7168 30.5406 29.1469C30.5406 28.5525 30.3989 28.0789 30.089 27.7542C29.7778 27.4282 29.3218 27.2781 28.75 27.2781H8.75C8.17818 27.2781 7.72221 27.4282 7.41103 27.7542C7.10109 28.0789 6.95937 28.5525 6.95937 29.1469C6.95937 29.7168 7.10198 30.1719 7.41347 30.4834C7.72495 30.7949 8.18 30.9375 8.75 30.9375H28.75ZM4.60938 24.2969H32.8906C33.2002 24.2969 33.4599 24.2194 33.6412 24.0381C33.8225 23.8568 33.9 23.5971 33.9 23.2875C33.9 22.9779 33.8225 22.7182 33.6412 22.5369C33.4599 22.3556 33.2002 22.2781 32.8906 22.2781H4.60938C4.29979 22.2781 4.04006 22.3556 3.85878 22.5369C3.6775 22.7182 3.6 22.9779 3.6 23.2875C3.6 23.5971 3.6775 23.8568 3.85878 24.0381C4.04006 24.2194 4.29979 24.2969 4.60938 24.2969ZM12.2594 5.93748H13.6V7.2781H12.2594V5.93748ZM17.2594 5.93748H18.6V7.2781H17.2594V5.93748ZM22.2594 5.93748H23.6V7.2781H22.2594V5.93748Z" fill="#22CECE" stroke="white" stroke-width="0.3"/>
</svg>
