<svg width="30" height="41" viewBox="0 0 30 41" fill="none" xmlns="http://www.w3.org/2000/svg">
<path d="M6.77522 10.9584L6.77525 10.9584C8.35385 8.65509 9.93051 6.6173 11.1127 5.15513C11.7037 4.42418 12.1959 3.83741 12.5401 3.43361C12.7122 3.23172 12.8473 3.07559 12.9393 2.97008C12.9852 2.91732 13.0204 2.87721 13.044 2.85037L13.0707 2.82013L13.0774 2.81261L13.079 2.81077L13.0794 2.81034L13.0794 2.8103L13.0795 2.81025L14.7288 0.955664L16.3781 2.81025L16.3782 2.8103L16.3782 2.81034L16.3786 2.81077L16.3802 2.81261L16.3869 2.82013L16.4135 2.85037C16.4372 2.87721 16.4724 2.91732 16.5183 2.97008C16.6103 3.07559 16.7454 3.23172 16.9175 3.43361C17.2617 3.83741 17.7538 4.42418 18.3448 5.15513C19.5271 6.6173 21.1037 8.65509 22.6823 10.9584L22.6824 10.9584C24.2641 13.2651 25.8972 15.7855 27.1348 18.3881C28.3729 20.9916 29.2076 23.6618 29.2076 26.2691C29.2076 34.2377 22.6964 40.7495 14.7288 40.7495C6.76114 40.7495 0.25 34.2377 0.25 26.2691C0.25 23.6618 1.08471 20.9916 2.32278 18.3881C3.56042 15.7855 5.19345 13.2651 6.77522 10.9584ZM14.92 8.11747L14.7288 7.89043L14.5376 8.11747C14.371 8.31528 14.2063 8.50768 14.0393 8.70285C13.1301 9.76531 12.1512 10.9093 10.4084 13.4498L10.4084 13.4498C8.91644 15.6251 7.48301 18.0909 6.42149 20.3754C5.36496 22.6491 4.6596 24.7789 4.6596 26.2691C4.6596 31.8599 9.13859 36.3394 14.7288 36.3394C20.319 36.3394 24.798 31.8599 24.798 26.2691C24.798 24.7789 24.0926 22.6497 23.0361 20.3763C21.9746 18.0922 20.5411 15.6263 19.0492 13.4499L19.0492 13.4499C17.309 10.9122 16.3287 9.76662 15.4192 8.70395C15.2518 8.50837 15.0869 8.3156 14.92 8.11747Z" fill="#22CECE" stroke="white" stroke-width="0.5"/>
</svg>
