<svg width="20" height="24" viewBox="0 0 20 24" fill="none" xmlns="http://www.w3.org/2000/svg">
<path d="M13.2 2.4H2.4V21.6H16.8V6H13.2V2.4ZM2.4 0H14.4L19.2 4.8V21.6C19.2 22.2365 18.9471 22.847 18.4971 23.2971C18.047 23.7471 17.4365 24 16.8 24H2.4C1.76348 24 1.15303 23.7471 0.702944 23.2971C0.252856 22.847 0 22.2365 0 21.6V2.4C0 1.76348 0.252856 1.15303 0.702944 0.702944C1.15303 0.252856 1.76348 0 2.4 0ZM4.8 10.8H14.4V13.2H4.8V10.8ZM4.8 15.6H14.4V18H4.8V15.6Z" fill="url(#paint0_linear)"/>
<defs>
<linearGradient id="paint0_linear" x1="0" y1="0" x2="15.6587" y2="0.787763" gradientUnits="userSpaceOnUse">
<stop stop-color="#FB8530"/>
<stop offset="1" stop-color="#FF4A6B"/>
</linearGradient>
</defs>
</svg>
