<svg width="22" height="24" viewBox="0 0 22 24" fill="none" xmlns="http://www.w3.org/2000/svg">
<path d="M19.2 0H2.4C1.76348 0 1.15303 0.252856 0.702944 0.702944C0.252856 1.15303 0 1.76348 0 2.4V4.8C0 5.43652 0.252856 6.04697 0.702944 6.49706C1.15303 6.94714 1.76348 7.2 2.4 7.2V20.4C2.4 21.3548 2.77928 22.2705 3.45442 22.9456C4.12955 23.6207 5.04522 24 6 24H15.6C16.5548 24 17.4705 23.6207 18.1456 22.9456C18.8207 22.2705 19.2 21.3548 19.2 20.4V7.2C19.8365 7.2 20.447 6.94714 20.8971 6.49706C21.3471 6.04697 21.6 5.43652 21.6 4.8V2.4C21.6 1.76348 21.3471 1.15303 20.8971 0.702944C20.447 0.252856 19.8365 0 19.2 0ZM16.8 16.8H9.6V12H16.8V16.8ZM16.8 9.6H8.4C8.08174 9.6 7.77652 9.72643 7.55147 9.95147C7.32643 10.1765 7.2 10.4817 7.2 10.8V18C7.2 18.3183 7.32643 18.6235 7.55147 18.8485C7.77652 19.0736 8.08174 19.2 8.4 19.2H16.8V20.4C16.8 20.7183 16.6736 21.0235 16.4485 21.2485C16.2235 21.4736 15.9183 21.6 15.6 21.6H6C5.68174 21.6 5.37652 21.4736 5.15147 21.2485C4.92643 21.0235 4.8 20.7183 4.8 20.4V7.2H16.8V9.6ZM2.4 4.8V2.4H19.2V4.8H2.4Z" fill="url(#paint0_linear)"/>
<defs>
<linearGradient id="paint0_linear" x1="0" y1="0" x2="17.6042" y2="0.996344" gradientUnits="userSpaceOnUse">
<stop stop-color="#FB8530"/>
<stop offset="1" stop-color="#FF4A6B"/>
</linearGradient>
</defs>
</svg>
