<svg width="12" height="13" viewBox="0 0 12 13" fill="none" xmlns="http://www.w3.org/2000/svg">
<path fill-rule="evenodd" clip-rule="evenodd" d="M6 12.7875C2.6862 12.7875 0 10.1013 0 6.78748C0 3.47368 2.6862 0.787476 6 0.787476C9.3138 0.787476 12 3.47368 12 6.78748C12 10.1013 9.3138 12.7875 6 12.7875ZM6 11.5875C7.27304 11.5875 8.49394 11.0818 9.39411 10.1816C10.2943 9.28141 10.8 8.06051 10.8 6.78748C10.8 5.51444 10.2943 4.29354 9.39411 3.39336C8.49394 2.49319 7.27304 1.98748 6 1.98748C4.72696 1.98748 3.50606 2.49319 2.60589 3.39336C1.70571 4.29354 1.2 5.51444 1.2 6.78748C1.2 8.06051 1.70571 9.28141 2.60589 10.1816C3.50606 11.0818 4.72696 11.5875 6 11.5875ZM5.4 9.18748H6.6V10.3875H5.4V9.18748ZM5.4 7.99228C5.4 7.99228 6.6 7.98748 6.6 7.99228C6.6 7.39108 8.4 6.78748 8.4 5.58748C8.4 4.26148 7.3362 3.18748 6.0054 3.18748C5.68977 3.18677 5.37711 3.24832 5.0853 3.36861C4.7935 3.48891 4.52829 3.66558 4.30485 3.88851C4.08142 4.11144 3.90415 4.37625 3.7832 4.66779C3.66226 4.95932 3.6 5.27185 3.6 5.58748H4.8C4.8 4.92748 5.34 4.38748 6 4.38748C6.66 4.38748 7.2 4.92748 7.2 5.58748C7.2 6.12748 5.4 7.00768 5.4 7.99228Z" fill="#696477"/>
</svg>
