<svg width="18" height="15" viewBox="0 0 18 15" fill="none" xmlns="http://www.w3.org/2000/svg">
<path d="M4.92635 7.08457C4.89647 7.15616 4.85269 7.22112 4.79755 7.27568L2.7824 9.04447C2.67062 9.15453 2.52004 9.21623 2.36317 9.21623C2.20629 9.21623 2.05571 9.15453 1.94393 9.04447L0.174062 7.27568C0.118917 7.22112 0.0751387 7.15616 0.0452613 7.08457C0.0153838 7.01298 0 6.93618 0 6.8586C0 6.78103 0.0153838 6.70422 0.0452613 6.63263C0.0751387 6.56104 0.118917 6.49609 0.174062 6.44153H1.74296C2.02695 5.14947 2.6611 3.9605 3.57592 3.00489C4.49074 2.04929 5.65093 1.36392 6.92938 1.02387C8.36264 0.64869 9.87641 0.721467 11.2671 1.23241C12.6577 1.74335 13.8585 2.66795 14.7079 3.88181L13.528 4.69435C12.8484 3.72128 11.8868 2.97992 10.7728 2.57016C9.65884 2.16039 8.44605 2.10191 7.29784 2.40259C6.32536 2.66189 5.43764 3.17109 4.72285 3.87962C4.00806 4.58816 3.49108 5.47137 3.22325 6.44153H4.79755C4.85269 6.49609 4.89647 6.56104 4.92635 6.63263C4.95622 6.70422 4.97161 6.78103 4.97161 6.8586C4.97161 6.93618 4.95622 7.01298 4.92635 7.08457Z" fill="black"/>
<path d="M15.3422 6.39939L17.03 8.23409C17.0849 8.28879 17.1285 8.35383 17.1582 8.42544C17.1879 8.49706 17.2031 8.57385 17.203 8.65139C17.2029 8.72892 17.1875 8.80567 17.1576 8.87721C17.1277 8.94875 17.084 9.01367 17.0289 9.06824H15.6836C15.4082 10.3724 14.7762 11.5745 13.858 12.5407C12.9399 13.5069 11.7716 14.1994 10.4832 14.541C9.05061 14.9162 7.53752 14.8436 6.14745 14.333C4.75738 13.8225 3.55702 12.8984 2.70785 11.6852L3.88668 10.8738C4.56724 11.8461 5.52919 12.5867 6.64318 12.996C7.75717 13.4053 8.96978 13.4637 10.118 13.1634C11.1005 12.9016 11.9964 12.385 12.7153 11.666C13.4342 10.9469 13.9505 10.0508 14.212 9.06824H12.8138C12.7587 9.01368 12.7149 8.94872 12.685 8.87713C12.6551 8.80554 12.6398 8.72874 12.6398 8.65116C12.6398 8.57359 12.6551 8.49678 12.685 8.42519C12.7149 8.3536 12.7587 8.28865 12.8138 8.23409L14.5037 6.39939C14.6155 6.28932 14.7661 6.22763 14.923 6.22763C15.0798 6.22763 15.2304 6.28932 15.3422 6.39939Z" fill="black"/>
</svg>
